<?xml version="1.0" encoding="iso-8859-1"?>
<!-- Generator: Adobe Illustrator 16.0.0, SVG Export Plug-In . SVG Version: 6.00 Build 0)  -->
<!DOCTYPE svg PUBLIC "-//W3C//DTD SVG 1.1//EN" "http://www.w3.org/Graphics/SVG/1.1/DTD/svg11.dtd">
<svg version="1.1" id="Capa_1" xmlns="http://www.w3.org/2000/svg" xmlns:xlink="http://www.w3.org/1999/xlink" x="0px" y="0px"
	 width="514.482px" height="514.482px" viewBox="0 0 514.482 514.482" style="enable-background:new 0 0 514.482 514.482;"
	 xml:space="preserve">
<g>
	<g>
		<path d="M437.235,372.479c-3.749-3.721-8.138-10.5-9.333-15.645c-2.237-9.592-5.021-21.449-8.473-36.137
			c-11.188-47.545-48.1-70.341-72.952-80.573c-4.887-2.008-5.823-6.283-2.247-10.175c22.434-24.432,36.203-56.925,36.203-92.641
			C380.434,61.592,318.842,0,243.126,0S105.818,61.592,105.818,137.308c0,35.438,13.55,67.722,35.678,92.096
			c3.548,3.911,2.582,8.167-2.324,10.127c-24.853,9.945-62.998,32.742-74.387,81.166c-5.087,21.631-8.73,37.189-11.322,48.357
			c-2.238,9.621-0.382,18.791,5.202,25.811c5.604,7.057,14.152,10.957,24.078,10.957h13.148c5.279,0,9.343,4.275,9.075,9.553
			l-2.247,44.199c-0.488,9.639,2.831,18.713,9.343,25.57c6.512,6.836,15.405,10.604,25.054,10.604h179.688
			c5.279,0,12.853,2.773,17.299,5.633c12.853,8.252,28.248,13.102,44.763,13.102c45.804,0,83.078-37.275,83.078-83.08
			C461.916,408.377,452.449,387.539,437.235,372.479z M243.117,14.353c67.807,0,122.964,55.166,122.964,122.964
			c0,2.716-0.115,5.393-0.325,8.042c-0.345,4.437-5.136,7.793-10.337,6.904c-38.021-6.521-59.097-35.85-68.727-54.229
			c-3.624-6.914-8.281-10.643-13.837-11.054c-5.642-0.392-10.854,2.668-15.548,9.094c-30.705,42.018-95.147,53.378-126.474,56.448
			c-5.259,0.516-10.031-2.783-10.366-7.201c-0.201-2.649-0.315-5.317-0.315-8.013C120.152,69.519,175.309,14.353,243.117,14.353z
			 M133.597,166.751c34.033-3.366,101.449-15.874,135.299-62.204c0.497-0.669,0.938-1.205,1.32-1.635
			c0.774-0.861,2.18-0.803,2.782,0.105c0.306,0.459,0.641,1.023,0.994,1.702c10.931,20.875,34.913,54.2,78.681,61.716
			c5.202,0.899,8.463,5.346,6.771,10.347c-6.388,18.867-17.193,35.726-31.24,49.247c-3.807,3.663-7.307,6.321-7.507,6.283
			c-0.201-0.039-0.401,0.105-0.44,0.315c-0.038,0.21-3.385,3.108-7.735,6.101c-19.766,13.588-43.663,21.573-69.405,21.573
			c-54.019,0-99.88-35.046-116.337-83.576C125.086,171.714,128.347,167.267,133.597,166.751z M229.012,273.822
			c4.638,0.516,9.333,0.803,14.105,0.803c4.025,0,7.994-0.219,11.915-0.602c5.259-0.518,7.803,2.715,5.737,7.572l-14.927,35.086
			c-2.065,4.857-5.422,4.857-7.487,0l-15.071-35.42C221.228,276.404,223.762,273.238,229.012,273.822z M222.71,339.029h-55.5
			c-5.288,0-9.467-1.779-11.762-4.973c-2.295-3.213-2.629-7.736-0.937-12.738l18.657-55.137c1.692-5.002,6.789-6.924,11.551-4.646
			c2.783,1.328,5.623,2.562,8.501,3.699c4.915,1.941,10.691,7.125,12.756,11.992l22.548,52.996
			C230.599,335.09,227.998,339.029,222.71,339.029z M290.785,266.029c3.031-1.119,6.016-2.324,8.941-3.645
			c4.819-2.17,9.945-0.182,11.638,4.82l18.312,54.123c1.693,5.012,1.358,9.525-0.937,12.738c-2.295,3.193-6.474,4.973-11.762,4.973
			h-55.501c-5.278,0-7.889-3.939-5.814-8.799l22.29-52.402C280.027,272.971,285.832,267.846,290.785,266.029z M122.428,475.275
			c-3.777-3.979-5.69-9.305-5.413-14.955l3.012-59.279c0.268-5.277-3.796-9.553-9.075-9.553H82.715
			c-5.451,0-10.012-1.959-12.843-5.527c-2.811-3.547-3.691-8.385-2.467-13.654c2.591-11.17,6.234-26.709,11.312-48.32
			c11.188-47.572,52.795-67.081,73.431-73.965c5.011-1.673,9.715-2.247,10.395-1.74c0.669,0.507-0.144,4.953-1.836,9.963
			l-19.785,58.475c-3.213,9.506-2.199,18.639,2.869,25.686c5.068,7.057,13.378,10.959,23.418,10.959h63.026h23.715h63.027
			c10.03,0,18.35-3.902,23.418-10.959c5.068-7.037,6.092-16.17,2.869-25.686l-19.374-57.26c-1.692-5-2.257-9.629-1.281-10.366
			c0.976-0.746,5.919-0.277,10.911,1.454c21.095,7.307,61.009,26.986,71.938,73.43c1.97,8.387,3.71,15.816,5.269,22.453
			c1.205,5.145-1.702,7.488-6.722,5.871c-7.938-2.553-16.391-3.949-25.169-3.949c-45.805,0-83.079,37.256-83.079,83.08
			c0,15.367,4.246,29.721,11.562,42.064c2.696,4.543,1.052,7.938-4.227,7.938H137.087
			C131.417,481.424,126.206,479.234,122.428,475.275z M314.567,431.422c0-35.449,28.831-64.27,64.27-64.27s64.27,28.82,64.27,64.27
			c0,35.43-28.831,64.27-64.27,64.27S314.567,466.852,314.567,431.422z"/>
		<path d="M381.295,400.477c3.509,0,6.378,1.023,8.597,3.08c2.218,2.057,3.337,4.58,3.337,7.564c0,1.529-0.363,2.955-1.09,4.254
			c-0.727,1.311-1.626,2.506-2.688,3.568c-1.062,1.061-2.792,2.629-5.183,4.723c-2.726,2.391-4.896,4.467-6.503,6.197
			c-1.606,1.74-2.897,3.758-3.863,6.053c-0.975,2.295-1.453,5.002-1.453,8.146c0,2.506,0.66,4.391,1.989,5.662
			s2.964,1.902,4.905,1.902c3.739,0,5.958-1.941,6.665-5.824c0.411-1.826,0.718-3.098,0.928-3.824
			c0.201-0.727,0.497-1.453,0.87-2.18s0.946-1.531,1.712-2.41c0.765-0.879,1.788-1.902,3.05-3.061
			c4.591-4.111,7.774-7.018,9.554-8.758c1.778-1.742,3.309-3.807,4.59-6.197c1.291-2.391,1.932-5.174,1.932-8.348
			c0-4.035-1.129-7.766-3.386-11.207c-2.256-3.434-5.46-6.15-9.61-8.148c-4.149-1.998-8.931-3.002-14.344-3.002
			c-5.823,0-10.93,1.195-15.3,3.586s-7.697,5.412-9.974,9.055c-2.275,3.645-3.414,7.23-3.414,10.777
			c0,1.721,0.718,3.328,2.162,4.801c1.434,1.473,3.203,2.209,5.297,2.209c3.548,0,5.958-2.113,7.229-6.33
			c1.349-4.035,2.983-7.076,4.935-9.152C374.161,401.52,377.192,400.477,381.295,400.477z"/>
		<path d="M385.779,471.24c1.684-1.492,2.524-3.549,2.524-6.168c0-2.352-0.803-4.332-2.409-5.938
			c-1.606-1.607-3.586-2.41-5.938-2.41c-2.391,0-4.408,0.803-6.053,2.41c-1.646,1.605-2.468,3.586-2.468,5.938
			c0,2.648,0.852,4.725,2.554,6.205c1.702,1.482,3.69,2.201,5.967,2.201C382.155,473.486,384.097,472.732,385.779,471.24z"/>
	</g>
</g>
<g>
</g>
<g>
</g>
<g>
</g>
<g>
</g>
<g>
</g>
<g>
</g>
<g>
</g>
<g>
</g>
<g>
</g>
<g>
</g>
<g>
</g>
<g>
</g>
<g>
</g>
<g>
</g>
<g>
</g>
</svg>
